# xmcd CD database file generated by OrangeCD 6.4
#
# Track frame offsets:
#	150
#	42072
#	65297
#	82037
#	103365
#	124767
#	147515
#	173287
#	206295
#	236125
#
# Disc length: 3471 seconds
#
# Revision: 9
# Processed by: cddbd v1.5.2PL0 Copyright (c) Steve Scherf et al.
# Submitted via: OrangeCD 6.4
#
DISCID=860d8d0a
DTITLE=Luther Vandross - The Best of Luther Vandross...The Best of Love
DYEAR=1989
DGENRE=R&B
TTITLE0=Superstar/Until You Come Back To Me
TTITLE1=Stop To Love
TTITLE2=So Amazing
TTITLE3=There Nothing Better Than Love
TTITLE4=Give Me The Reason
TTITLE5=Any Love
TTITLE6=I Really Didn't Mean It
TTITLE7=Love Won't Let Me Wait
TTITLE8=Treat You Right
TTITLE9=Here And Now
EXTD=
EXTT0=
EXTT1=
EXTT2=
EXTT3=
EXTT4=
EXTT5=
EXTT6=
EXTT7=
EXTT8=
EXTT9=
PLAYORDER=
